PathFileType	4	(X/Y/Z)	C:/Users/beibeiliu/ov580/test_trc\sequence.34_training_dense_left.trc
DataRate	CameraRate	NumFrames	NumMarkers	Units	OrigDataRate	OrigDataStartFrame	OrigNumFrames
120	120	12	19	mm	120	114	142
Frame#	Time	ThumbCMC			ThumbMCP			ThumbIP			ThumbTip			IndexMCP			IndexPIP			IndexTip			MiddleMCP			MiddlePIP			MiddleTip			RingMCP			RingPIP			RingTip			PinkyMCP			PinkyPIP			PinkyTip			BackHand1			BackHand2			BackHand3	
		X0	Y0	Z0	X1	Y1	Z1	X2	Y2	Z2	X3	Y3	Z3	X4	Y4	Z4	X5	Y5	Z5	X6	Y6	Z6	X7	Y7	Z7	X8	Y8	Z8	X9	Y9	Z9	X10	Y10	Z10	X11	Y11	Z11	X12	Y12	Z12	X13	Y13	Z13	X14	Y14	Z14	X15	Y15	Z15	X16	Y16	Z16	X17	Y17	Z17	X18	Y18	Z18	
113	0.941667	-175.853	126.102	49.2004	-155.07	114.737	36.3198	-142.105	103.599	18.1372	-131.717	90.9909	1.85232	-189.972	107.288	-10.8504	-187.172	96.2446	-34.1249	-184.916	87.7747	-53.7065	-197.541	83.3727	-15.0641	-184.868	76.1404	-32.1131	-163.581	54.0742	-44.192	-208.604	72.9016	-4.08978	-202.226	63.1333	-20.6903	-194.075	49.1205	-39.6901	-219.042	63.1422	19.8786	-223.023	51.7948	0.52578	-223.254	41.1799	-17.5902	-218.54	95.7637	36.3951	-225.625	102.16	62.6317	-209.497	121.393	43.886	
114	0.95	-146.581	101.516	62.2914	-133.785	79.6349	39.3765	-129.951	66.2895	21.1816	-128.255	53.4323	8.6345	-160.875	106.374	-4.57062	-160.787	98.7534	-27.3405	-164.531	94.0036	-45.1125	-181.246	99.8372	-7.77655	-184.208	88.7165	-33.6541	-183.091	79.8486	-52.2357	-204.957	93.1491	0.462982	-205.934	87.4788	-17.0233	-208.376	79.7138	-37.9307	-214.249	86.1629	23.1384	-223.424	82.74	3.88251	-234.057	75.0444	-12.8224	-196.99	105.636	48.0599	-198.164	111.234	67.8346	-175.137	119.758	54.2848	
115	0.958333	-139.464	74.016	56.9082	-132.583	53.1725	40.2384	-128.956	38.6741	17.0258	-130.64	28.4512	1.66231	-145.862	92.6648	-3.91972	-145.425	90.6029	-29.1368	-144.398	90.158	-46.2902	-174.496	98.3605	-8.14384	-179.525	97.9781	-33.7939	-180.188	97.9929	-53.6506	-190.76	95.7901	3.61215	-199.177	98.5738	-22.0996	-203.584	98.257	-40.0128	-211.246	89.5754	17.2368	-221.072	88.0901	3.37174	-229.066	90.375	-16.7352	-184.52	98.4185	44.4116	-180.261	101.335	68.7795	-153.926	100.123	52.4839	
116	0.966667	-148.033	48.125	50.78	-141.74	29.3669	23.8187	-138.781	19.1814	7.00816	-141.682	12.5264	-14.6345	-147.085	76.1142	-8.95849	-144.035	79.3174	-30.2556	-137.735	82.3915	-52.5539	-172.403	88.4047	-11.8534	-170.174	95.8337	-36.0945	-175.264	104.447	-57.4737	-192.446	86.7324	-4.41518	-194.14	95.1047	-27.9555	-199.391	102.01	-44.6603	-211.449	80.0551	4.07237	-221.239	82.976	-7.59859	-229.372	90.9658	-23.7463	-184.096	83.4523	35.7385	-188.556	82.5027	60.9417	-159.232	78.5719	48.8236	
117	0.975	-167.294	22.3209	38.3638	-159.088	6.10773	10.9332	-157.714	1.54142	-7.15376	-156.708	-3.29612	-27.5496	-157.641	58.6516	-19.5637	-148.773	60.9528	-40.5665	-143.795	64.6376	-62.2647	-180.548	72.8096	-20.295	-178.935	82.5018	-41.7213	-177.635	93.776	-62.0116	-198.151	72.7485	-16.5712	-198.252	82.1198	-33.3928	-200.162	94.2555	-53.6558	-223.494	67.682	-4.2357	-228.736	76.598	-20.5887	-230.971	90.4664	-33.8904	-199.271	64.6499	22.3845	-201.063	57.4679	51.7495	-178.381	56.459	35.9254	
118	0.983333	-186.756	10.1624	28.701	-180.46	-6.10872	2.58413	-178.471	-9.84656	-17.111	-173.151	-21.0646	-34.9004	-168.489	39.6427	-27.0599	-163.439	39.6636	-52.0397	-163.621	37.793	-73.3707	-187.785	58.2736	-28.4497	-183.65	65.8801	-50.2591	-183.596	76.2133	-75.0863	-209.132	68.7799	-23.3147	-207.025	77.8606	-38.3436	-203.54	90.4692	-58.5234	-229.798	65.4543	-7.26751	-231.902	77.7448	-18.2693	-228.752	94.0173	-30.4267	-210.891	56.2695	19.3923	-213.202	50.531	45.0826	-187.461	39.2131	31.9797	
119	0.991667	-192.498	5.44541	27.5441	-188.908	-14.164	4.50391	-187.154	-21.5249	-16.269	-186.882	-30.332	-33.7341	-177.506	24.3876	-30.2914	-178.961	20.1797	-56.1211	-189.254	10.7291	-79.133	-192.26	50.267	-35.595	-190.419	52.9054	-61.7418	-191.591	56.4398	-87.1185	-206.925	63.2144	-25.1553	-202.883	70.2589	-44.0956	-202.97	80.5667	-60.8621	-225.566	66.8787	-8.04268	-226.707	80.4221	-18.2126	-220.05	95.514	-29.4716	-207.157	55.5313	13.9633	-210.148	52.1612	40.7821	-189.27	37.4547	29.3569	
120	1	-188.708	2.01745	30.8545	-194.124	-13.039	10.5048	-194.206	-24.1552	-11.079	-193.998	-34.7961	-24.3235	-183.652	16.3297	-37.498	-193.555	8.15291	-56.254	-209.37	-5.60979	-71.484	-193.125	42.6182	-36.1559	-195.002	40.2491	-64.5481	-202.011	40.6605	-86.871	-202.556	56.3445	-24.8868	-202.194	63.8721	-45.8049	-201.647	74.8395	-68.1581	-217.108	68.2518	-11.6811	-215.935	81.4044	-23.022	-212.516	92.3877	-26.7379	-200.721	54.7102	16.2822	-200.651	53.3083	40.2515	-180.608	31.9957	22.5873	
121	1.00833	-186.247	-0.827686	30.8585	-195.215	-16.8289	14.8905	-196.87	-29.0628	-5.82168	-199.015	-42.7448	-23.7184	-190.909	10.3282	-36.6195	-205.211	0.520244	-52.7086	-230.639	-10.3641	-61.5222	-195.019	36.1545	-42.2375	-199.117	30.987	-62.3133	-213.037	32.101	-85.6772	-204.139	56.9034	-27.1205	-205.747	63.0515	-48.9922	-207.289	67.467	-69.9186	-214.116	67.6393	-7.70677	-214.328	79.7015	-19.9801	-210.673	92.9388	-29.9186	-193.901	51.1716	11.4342	-191.514	52.931	40.7032	-176.051	30.7449	23.5051	
122	1.01667	-187.411	2.29176	34.2663	-198.05	-17.5542	15.9062	-204.335	-34.4065	-2.17415	-209.662	-45.1946	-15.8449	-197.075	3.36635	-35.8776	-212.969	-5.21417	-47.3752	-235.381	-16.155	-52.1631	-199.414	30.4606	-40.3205	-211.008	23.5156	-62.1371	-230.831	16.0084	-81.3303	-205.979	53.2824	-30.3147	-211.803	56.7104	-51.9919	-220.339	57.0091	-69.9007	-212.236	69.7434	-11.5716	-213.916	76.584	-23.1505	-213.108	86.7598	-40.2772	-191.87	51.6991	9.14306	-182.757	52.9521	37.5721	-174.022	25.9531	21.8573	
123	1.025	-180.337	4.34272	33.405	-195.326	-14.8435	18.6419	-204.763	-27.1836	3.6817	-212.225	-41.8722	-4.25874	-192.678	1.6466	-30.1786	-214.259	-8.25927	-45.8294	-238.098	-21.2234	-45.6918	-200.557	25.8993	-39.0987	-220.014	18.555	-57.846	-243.038	3.02258	-63.6834	-205.376	47.6961	-28.7296	-219.897	47.3885	-52.9746	-236.75	37.4575	-68.0205	-212.446	65.0207	-12.0923	-218.326	72.2144	-31.8376	-224.787	80.6896	-46.6083	-188.409	55.6935	11.2558	-178.089	56.8596	31.4902	-170.193	35.975	21.4781	
124	1.03333	-167.165	29.8575	31.2515	-178.394	6.52331	20.8033	-182.508	-14.5596	7.47969	-189.835	-27.7383	-1.25317	-177.001	16.935	-31.3351	-190.444	-0.749256	-44.3329	-208.485	-21.7923	-43.0682	-191.103	29.2065	-39.4145	-212.032	8.80549	-51.6997	-228.352	-11.3846	-38.3993	-206.41	49.7921	-34.4266	-217.65	33.9959	-52.587	-232.554	8.3348	-51.9937	-219.997	65.4896	-20.507	-228.818	59.9698	-41.3691	-238.845	54.5708	-58.1655	-187.341	67.5492	0.131255	-181.48	81.3493	24.8957	-166.203	58.056	16.2326	
